<svg xmlns="http://www.w3.org/2000/svg" version="1.1" xmlns:xlink="http://www.w3.org/1999/xlink" xmlns:svgjs="http://svgjs.dev/svgjs" viewBox="0 0 1422 800"><g fill="none" stroke-width="3" stroke="hsl(30, 100%, 40%)" stroke-linecap="square"><line x1="1248.5" y1="400" x2="173.5" y2="400" transform="rotate(0, 711, 400)" opacity="0.78"></line><line x1="1286.5" y1="400" x2="135.5" y2="400" transform="rotate(4, 711, 400)" opacity="0.53"></line><line x1="720" y1="400" x2="702" y2="400" transform="rotate(8, 711, 400)" opacity="0.55"></line><line x1="820.5" y1="400" x2="601.5" y2="400" transform="rotate(12, 711, 400)" opacity="0.08"></line><line x1="841" y1="400" x2="581" y2="400" transform="rotate(16, 711, 400)" opacity="0.44"></line><line x1="870" y1="400" x2="552" y2="400" transform="rotate(20, 711, 400)" opacity="0.23"></line><line x1="1032.5" y1="400" x2="389.5" y2="400" transform="rotate(24, 711, 400)" opacity="0.38"></line><line x1="694.5" y1="400" x2="727.5" y2="400" transform="rotate(28, 711, 400)" opacity="0.84"></line><line x1="706.5" y1="400" x2="715.5" y2="400" transform="rotate(32, 711, 400)" opacity="0.41"></line><line x1="815.5" y1="400" x2="606.5" y2="400" transform="rotate(36, 711, 400)" opacity="0.16"></line><line x1="739" y1="400" x2="683" y2="400" transform="rotate(40, 711, 400)" opacity="0.71"></line><line x1="903.5" y1="400" x2="518.5" y2="400" transform="rotate(44, 711, 400)" opacity="0.20"></line><line x1="1215" y1="400" x2="207" y2="400" transform="rotate(48, 711, 400)" opacity="0.90"></line><line x1="980" y1="400" x2="442" y2="400" transform="rotate(52, 711, 400)" opacity="0.35"></line><line x1="920" y1="400" x2="502" y2="400" transform="rotate(56, 711, 400)" opacity="0.14"></line><line x1="1165" y1="400" x2="257" y2="400" transform="rotate(60, 711, 400)" opacity="0.89"></line><line x1="892.5" y1="400" x2="529.5" y2="400" transform="rotate(64, 711, 400)" opacity="0.75"></line><line x1="1364.5" y1="400" x2="57.5" y2="400" transform="rotate(68, 711, 400)" opacity="0.36"></line><line x1="913" y1="400" x2="509" y2="400" transform="rotate(72, 711, 400)" opacity="0.10"></line><line x1="1264" y1="400" x2="158" y2="400" transform="rotate(76, 711, 400)" opacity="0.82"></line><line x1="841" y1="400" x2="581" y2="400" transform="rotate(80, 711, 400)" opacity="0.62"></line><line x1="1363.5" y1="400" x2="58.5" y2="400" transform="rotate(84, 711, 400)" opacity="0.08"></line><line x1="786.5" y1="400" x2="635.5" y2="400" transform="rotate(88, 711, 400)" opacity="0.38"></line><line x1="1145.5" y1="400" x2="276.5" y2="400" transform="rotate(92, 711, 400)" opacity="0.77"></line><line x1="1066" y1="400" x2="356" y2="400" transform="rotate(96, 711, 400)" opacity="0.51"></line><line x1="1110.5" y1="400" x2="311.5" y2="400" transform="rotate(100, 711, 400)" opacity="0.14"></line><line x1="760.5" y1="400" x2="661.5" y2="400" transform="rotate(104, 711, 400)" opacity="0.28"></line><line x1="1344.5" y1="400" x2="77.5" y2="400" transform="rotate(108, 711, 400)" opacity="0.65"></line><line x1="854" y1="400" x2="568" y2="400" transform="rotate(112, 711, 400)" opacity="0.37"></line><line x1="929" y1="400" x2="493" y2="400" transform="rotate(116, 711, 400)" opacity="0.10"></line><line x1="682.5" y1="400" x2="739.5" y2="400" transform="rotate(120, 711, 400)" opacity="0.19"></line><line x1="888" y1="400" x2="534" y2="400" transform="rotate(124, 711, 400)" opacity="0.46"></line><line x1="810" y1="400" x2="612" y2="400" transform="rotate(128, 711, 400)" opacity="0.55"></line><line x1="941.5" y1="400" x2="480.5" y2="400" transform="rotate(132, 711, 400)" opacity="0.79"></line><line x1="1349.5" y1="400" x2="72.5" y2="400" transform="rotate(136, 711, 400)" opacity="0.47"></line><line x1="1017.5" y1="400" x2="404.5" y2="400" transform="rotate(140, 711, 400)" opacity="0.87"></line><line x1="889" y1="400" x2="533" y2="400" transform="rotate(144, 711, 400)" opacity="0.43"></line><line x1="747.5" y1="400" x2="674.5" y2="400" transform="rotate(148, 711, 400)" opacity="1.00"></line><line x1="833.5" y1="400" x2="588.5" y2="400" transform="rotate(152, 711, 400)" opacity="0.41"></line><line x1="846.5" y1="400" x2="575.5" y2="400" transform="rotate(156, 711, 400)" opacity="0.78"></line><line x1="1168.5" y1="400" x2="253.5" y2="400" transform="rotate(160, 711, 400)" opacity="0.91"></line><line x1="1137" y1="400" x2="285" y2="400" transform="rotate(164, 711, 400)" opacity="0.20"></line><line x1="924.5" y1="400" x2="497.5" y2="400" transform="rotate(168, 711, 400)" opacity="0.55"></line><line x1="1243.5" y1="400" x2="178.5" y2="400" transform="rotate(172, 711, 400)" opacity="0.42"></line><line x1="981" y1="400" x2="441" y2="400" transform="rotate(176, 711, 400)" opacity="0.51"></line><line x1="1276.5" y1="400" x2="145.5" y2="400" transform="rotate(180, 711, 400)" opacity="0.78"></line><line x1="991.5" y1="400" x2="430.5" y2="400" transform="rotate(184, 711, 400)" opacity="0.66"></line><line x1="765" y1="400" x2="657" y2="400" transform="rotate(188, 711, 400)" opacity="0.71"></line><line x1="830.5" y1="400" x2="591.5" y2="400" transform="rotate(192, 711, 400)" opacity="0.81"></line><line x1="791" y1="400" x2="631" y2="400" transform="rotate(196, 711, 400)" opacity="0.61"></line><line x1="1175.5" y1="400" x2="246.5" y2="400" transform="rotate(200, 711, 400)" opacity="0.40"></line><line x1="1318" y1="400" x2="104" y2="400" transform="rotate(204, 711, 400)" opacity="0.63"></line><line x1="679.5" y1="400" x2="742.5" y2="400" transform="rotate(208, 711, 400)" opacity="0.40"></line><line x1="1018" y1="400" x2="404" y2="400" transform="rotate(212, 711, 400)" opacity="0.78"></line><line x1="1205" y1="400" x2="217" y2="400" transform="rotate(216, 711, 400)" opacity="0.56"></line><line x1="1025" y1="400" x2="397" y2="400" transform="rotate(220, 711, 400)" opacity="0.72"></line><line x1="855" y1="400" x2="567" y2="400" transform="rotate(224, 711, 400)" opacity="0.88"></line><line x1="1139.5" y1="400" x2="282.5" y2="400" transform="rotate(228, 711, 400)" opacity="0.19"></line><line x1="1359" y1="400" x2="63" y2="400" transform="rotate(232, 711, 400)" opacity="0.97"></line><line x1="1214" y1="400" x2="208" y2="400" transform="rotate(236, 711, 400)" opacity="0.09"></line><line x1="1264" y1="400" x2="158" y2="400" transform="rotate(240, 711, 400)" opacity="0.09"></line><line x1="990.5" y1="400" x2="431.5" y2="400" transform="rotate(244, 711, 400)" opacity="0.75"></line><line x1="1233" y1="400" x2="189" y2="400" transform="rotate(248, 711, 400)" opacity="0.63"></line><line x1="1155" y1="400" x2="267" y2="400" transform="rotate(252, 711, 400)" opacity="0.75"></line><line x1="1047.5" y1="400" x2="374.5" y2="400" transform="rotate(256, 711, 400)" opacity="0.51"></line><line x1="1109" y1="400" x2="313" y2="400" transform="rotate(260, 711, 400)" opacity="0.11"></line><line x1="890.5" y1="400" x2="531.5" y2="400" transform="rotate(264, 711, 400)" opacity="0.55"></line><line x1="1035.5" y1="400" x2="386.5" y2="400" transform="rotate(268, 711, 400)" opacity="0.98"></line><line x1="809" y1="400" x2="613" y2="400" transform="rotate(272, 711, 400)" opacity="0.53"></line><line x1="1114" y1="400" x2="308" y2="400" transform="rotate(276, 711, 400)" opacity="0.38"></line><line x1="997" y1="400" x2="425" y2="400" transform="rotate(280, 711, 400)" opacity="0.86"></line><line x1="1189" y1="400" x2="233" y2="400" transform="rotate(284, 711, 400)" opacity="0.31"></line><line x1="898" y1="400" x2="524" y2="400" transform="rotate(288, 711, 400)" opacity="0.96"></line><line x1="766" y1="400" x2="656" y2="400" transform="rotate(292, 711, 400)" opacity="0.57"></line><line x1="991" y1="400" x2="431" y2="400" transform="rotate(296, 711, 400)" opacity="0.64"></line><line x1="798" y1="400" x2="624" y2="400" transform="rotate(300, 711, 400)" opacity="0.25"></line><line x1="846" y1="400" x2="576" y2="400" transform="rotate(304, 711, 400)" opacity="0.18"></line><line x1="1344.5" y1="400" x2="77.5" y2="400" transform="rotate(308, 711, 400)" opacity="0.11"></line><line x1="974.5" y1="400" x2="447.5" y2="400" transform="rotate(312, 711, 400)" opacity="0.26"></line><line x1="838.5" y1="400" x2="583.5" y2="400" transform="rotate(316, 711, 400)" opacity="0.99"></line><line x1="1095.5" y1="400" x2="326.5" y2="400" transform="rotate(320, 711, 400)" opacity="0.33"></line><line x1="1290.5" y1="400" x2="131.5" y2="400" transform="rotate(324, 711, 400)" opacity="0.50"></line><line x1="870" y1="400" x2="552" y2="400" transform="rotate(328, 711, 400)" opacity="0.80"></line><line x1="752" y1="400" x2="670" y2="400" transform="rotate(332, 711, 400)" opacity="0.14"></line><line x1="676.5" y1="400" x2="745.5" y2="400" transform="rotate(336, 711, 400)" opacity="0.31"></line><line x1="948.5" y1="400" x2="473.5" y2="400" transform="rotate(340, 711, 400)" opacity="0.79"></line><line x1="1238" y1="400" x2="184" y2="400" transform="rotate(344, 711, 400)" opacity="0.19"></line><line x1="1127" y1="400" x2="295" y2="400" transform="rotate(348, 711, 400)" opacity="0.36"></line></g></svg>